{
  "accessors": [
    {
      "bufferView": 3,
      "componentType": 5126,
      "count": 12784,
      "max": [
        2.393172264099121,
        4.868603229522705,
        3.3203108310699463
      ],
      "min": [
        0.5642380714416504,
        0.012600855901837349,
        -2.1080894470214844
      ],
      "type": "VEC3"
    },
    {
      "bufferView": 3,
      "byteOffset": 153408,
      "componentType": 5126,
      "count": 12784,
      "max": [
        0.9999942183494568,
        0.9998695850372314,
        0.9999809265136719
      ],
      "min": [
        -0.9999901652336121,
        -0.9993444085121155,
        -0.999880850315094
      ],
      "type": "VEC3"
    },
    {
      "bufferView": 2,
      "componentType": 5126,
      "count": 12784,
      "max": [
        0.9997149705886841,
        0.9978029727935791
      ],
      "min": [
        0.00024399999529123306,
        0.00025400001322850585
      ],
      "type": "VEC2"
    },
    {
      "bufferView": 1,
      "componentType": 5125,
      "count": 53379,
      "type": "SCALAR"
    },
    {
      "bufferView": 3,
      "byteOffset": 306816,
      "componentType": 5126,
      "count": 15725,
      "max": [
        -0.43837660551071167,
        5.853099822998047,
        5.552687644958496
      ],
      "min": [
        -2.9332573413848877,
        0.07758540660142899,
        -1.86370050907135
      ],
      "type": "VEC3"
    },
    {
      "bufferView": 3,
      "byteOffset": 495516,
      "componentType": 5126,
      "count": 15725,
      "max": [
        0.9998642802238464,
        0.9993811845779419,
        0.9998608827590942
      ],
      "min": [
        -0.9998725056648254,
        -1.0,
        -0.9999590516090393
      ],
      "type": "VEC3"
    },
    {
      "bufferView": 2,
      "byteOffset": 102272,
      "componentType": 5126,
      "count": 15725,
      "max": [
        0.9996150135993958,
        0.9921087026596069
      ],
      "min": [
        0.0002894703357014805,
        0.00027099999715574086
      ],
      "type": "VEC2"
    },
    {
      "bufferView": 1,
      "byteOffset": 213516,
      "componentType": 5125,
      "count": 63048,
      "type": "SCALAR"
    },
    {
      "bufferView": 5,
      "componentType": 5126,
      "count": 10,
      "max": [
        1.0,
        1.5049341917037964,
        3.5787441730499268,
        0.0,
        1.0231678485870361,
        2.2429425716400146,
        3.3797852993011475,
        0.0,
        3.5542311668395996,
        3.3797857761383057,
        1.4538075923919678,
        0.0,
        4.6233930587768555,
        11.970614433288574,
        3.1512091159820557,
        1.0
      ],
      "min": [
        -3.592876434326172,
        -0.7048147320747375,
        -3.5149176120758057,
        0.0,
        -0.6431580781936646,
        -3.568267583847046,
        -0.399137943983078,
        0.0,
        -3.490313768386841,
        -0.9082725644111633,
        -2.2429425716400146,
        0.0,
        -3.275376319885254,
        -9.12579345703125,
        -15.557286262512207,
        1.0
      ],
      "type": "MAT4"
    },
    {
      "bufferView": 5,
      "byteOffset": 640,
      "componentType": 5126,
      "count": 19,
      "max": [
        3.687373161315918,
        1.0721015930175781,
        2.2415454387664795,
        0.0,
        0.9896731972694397,
        2.1178641319274902,
        3.684699773788452,
        0.0,
        2.240116596221924,
        3.684699535369873,
        3.1025331020355225,
        0.0,
        6.768650054931641,
        14.006080627441406,
        0.0,
        1.0
      ],
      "min": [
        -3.687372922897339,
        -1.2970085144042969,
        -1.9909210205078125,
        0.0,
        -1.31633722782135,
        -3.6850223541259766,
        -0.7327970266342163,
        0.0,
        -2.022125244140625,
        -3.6836183071136475,
        -3.6864116191864014,
        0.0,
        -7.359620571136475,
        -15.8680419921875,
        -24.330642700195313,
        1.0
      ],
      "type": "MAT4"
    },
    {
      "bufferView": 0,
      "componentType": 5123,
      "count": 12784,
      "type": "VEC4"
    },
    {
      "bufferView": 4,
      "componentType": 5126,
      "count": 12784,
      "max": [
        1.0,
        0.4990564286708832,
        0.3233475387096405,
        0.2373652309179306
      ],
      "min": [
        0.26421812176704407,
        0.0,
        0.0,
        0.0
      ],
      "type": "VEC4"
    },
    {
      "bufferView": 0,
      "byteOffset": 102272,
      "componentType": 5123,
      "count": 15725,
      "type": "VEC4"
    },
    {
      "bufferView": 4,
      "byteOffset": 204544,
      "componentType": 5126,
      "count": 15725,
      "max": [
        1.0,
        0.49977996945381165,
        0.3321155607700348,
        0.22824740409851074
      ],
      "min": [
        0.2779507040977478,
        0.0,
        0.0,
        0.0
      ],
      "type": "VEC4"
    }
  ],
  "asset": {
    "extras": {
      "author": "TORONTOMAN (https://sketchfab.com/TORONTOMAN)",
      "license": "CC-BY-4.0 (http://creativecommons.org/licenses/by/4.0/)",
      "source": "https://sketchfab.com/3d-models/coyotee-statue-1695905d6be549f3806b2d58949d7ce4",
      "title": "Coyotee Statue"
    },
    "generator": "Sketchfab-12.66.0",
    "version": "2.0"
  },
  "bufferViews": [
    {
      "buffer": 0,
      "byteLength": 228072,
      "byteStride": 8,
      "name": "shortBufferViews",
      "target": 34962
    },
    {
      "buffer": 0,
      "byteLength": 465708,
      "byteOffset": 228072,
      "name": "floatBufferViews",
      "target": 34963
    },
    {
      "buffer": 0,
      "byteLength": 228072,
      "byteOffset": 693780,
      "byteStride": 8,
      "name": "floatBufferViews",
      "target": 34962
    },
    {
      "buffer": 0,
      "byteLength": 684216,
      "byteOffset": 921852,
      "byteStride": 12,
      "name": "floatBufferViews",
      "target": 34962
    },
    {
      "buffer": 0,
      "byteLength": 456144,
      "byteOffset": 1606068,
      "byteStride": 16,
      "name": "floatBufferViews",
      "target": 34962
    },
    {
      "buffer": 0,
      "byteLength": 1856,
      "byteOffset": 2062212,
      "name": "floatBufferViews"
    }
  ],
  "buffers": [
    {
      "byteLength": 2064068,
      "uri": "scene.bin"
    }
  ],
  "images": [
    {
      "uri": "textures/Material.002_baseColor.jpeg"
    },
    {
      "uri": "textures/Material.001_baseColor.jpeg"
    }
  ],
  "materials": [
    {
      "doubleSided": true,
      "name": "Material.002",
      "pbrMetallicRoughness": {
        "baseColorTexture": {
          "index": 0
        },
        "metallicFactor": 0.0
      }
    },
    {
      "doubleSided": true,
      "name": "Material.001",
      "pbrMetallicRoughness": {
        "baseColorTexture": {
          "index": 1
        },
        "metallicFactor": 0.0
      }
    }
  ],
  "meshes": [
    {
      "name": "Object_0",
      "primitives": [
        {
          "attributes": {
            "JOINTS_0": 10,
            "NORMAL": 1,
            "POSITION": 0,
            "TEXCOORD_0": 2,
            "WEIGHTS_0": 11
          },
          "indices": 3,
          "material": 0,
          "mode": 4
        }
      ]
    },
    {
      "name": "Object_1",
      "primitives": [
        {
          "attributes": {
            "JOINTS_0": 12,
            "NORMAL": 5,
            "POSITION": 4,
            "TEXCOORD_0": 6,
            "WEIGHTS_0": 13
          },
          "indices": 7,
          "material": 1,
          "mode": 4
        }
      ]
    }
  ],
  "nodes": [
    {
      "children": [
        1
      ],
      "matrix": [
        1.0,
        0.0,
        0.0,
        0.0,
        0.0,
        2.220446049250313e-16,
        -1.0,
        0.0,
        0.0,
        1.0,
        2.220446049250313e-16,
        0.0,
        0.0,
        0.0,
        0.0,
        1.0
      ],
      "name": "Sketchfab_model"
    },
    {
      "children": [
        2
      ],
      "name": "root"
    },
    {
      "children": [
        3,
        17
      ],
      "matrix": [
        1.0,
        0.0,
        0.0,
        0.0,
        0.0,
        2.220446049250313e-16,
        1.0,
        0.0,
        0.0,
        -1.0,
        2.220446049250313e-16,
        0.0,
        0.0,
        0.0,
        0.0,
        1.0
      ],
      "name": "GLTF_SceneRootNode"
    },
    {
      "children": [
        4
      ],
      "matrix": [
        -0.278328537940846,
        0.0,
        2.720728562430141e-07,
        0.0,
        0.0,
        0.278328537940979,
        0.0,
        0.0,
        -2.720728562430141e-07,
        0.0,
        -0.278328537940846,
        0.0,
        0.6480892896652222,
        3.225828170776367,
        0.9561405181884766,
        1.0
      ],
      "name": "Armature_10"
    },
    {
      "children": [
        5,
        7,
        6
      ],
      "name": "GLTF_created_0"
    },
    {
      "children": [
        8,
        11,
        14
      ],
      "name": "GLTF_created_0_rootJoint"
    },
    {
      "name": "Coyote_1_Model_120k.003_9"
    },
    {
      "mesh": 0,
      "name": "Object_7",
      "skin": 0
    },
    {
      "children": [
        9
      ],
      "name": "Bone_2",
      "rotation": [
        -0.4334311783313751,
        0.0,
        0.0,
        0.9011867046356201
      ],
      "scale": [
        1.0,
        0.9999999403953552,
        1.0
      ],
      "translation": [
        -2.294891357421875,
        -0.7093304991722107,
        0.44854721426963806
      ]
    },
    {
      "children": [
        10
      ],
      "name": "Bone.001_1",
      "rotation": [
        -0.518753170967102,
        0.0,
        0.0,
        0.8549240827560425
      ],
      "scale": [
        1.0,
        1.0,
        1.0000001192092896
      ],
      "translation": [
        0.0,
        4.959033489227295,
        5.960464477539063e-08
      ]
    },
    {
      "name": "Bone.002_0",
      "rotation": [
        0.035215169191360474,
        0.0,
        0.0,
        0.9993798136711121
      ],
      "scale": [
        1.0,
        0.9999999403953552,
        0.9999999403953552
      ],
      "translation": [
        0.0,
        2.1482949256896973,
        3.4154311379097635e-08
      ]
    },
    {
      "children": [
        12
      ],
      "name": "Bone.004_5",
      "rotation": [
        0.75966477394104,
        0.15827608108520508,
        0.6297786235809326,
        0.03517361357808113
      ],
      "scale": [
        0.9999998807907104,
        1.0,
        1.0
      ],
      "translation": [
        -2.294891834259033,
        -0.7093306183815002,
        0.4485473334789276
      ]
    },
    {
      "children": [
        13
      ],
      "name": "Bone.006_4",
      "rotation": [
        -0.06068669259548187,
        -0.004979344550520182,
        0.2023601233959198,
        0.9774163365364075
      ],
      "scale": [
        1.0,
        0.9999998211860657,
        0.9999999403953552
      ],
      "translation": [
        -6.399774576948403e-08,
        4.201360702514648,
        3.0110165027963376e-08
      ]
    },
    {
      "name": "Bone.007_3",
      "rotation": [
        0.012693127617239952,
        0.00020487244182731956,
        8.497433009324595e-05,
        0.9999194145202637
      ],
      "scale": [
        1.0,
        0.9999999403953552,
        0.9999999403953552
      ],
      "translation": [
        2.0861624250301247e-07,
        3.340763568878174,
        2.9753735475424037e-08
      ]
    },
    {
      "children": [
        15
      ],
      "name": "Bone.005_8",
      "rotation": [
        -0.6386159062385559,
        0.2340516299009323,
        0.7284319400787354,
        0.08231956511735916
      ],
      "scale": [
        0.9999999403953552,
        0.9999998211860657,
        0.9999998211860657
      ],
      "translation": [
        -2.294891357421875,
        -0.7093306183815002,
        0.44854721426963806
      ]
    },
    {
      "children": [
        16
      ],
      "name": "Bone.008_7",
      "rotation": [
        -0.23407654464244843,
        0.0077424379996955395,
        -0.15344585478305817,
        0.9600014090538025
      ],
      "scale": [
        1.000000238418579,
        1.0000001192092896,
        1.0
      ],
      "translation": [
        1.9090977332325565e-07,
        4.58228874206543,
        3.880603003381111e-07
      ]
    },
    {
      "name": "Bone.009_6",
      "rotation": [
        -0.050864845514297485,
        0.0003511864342726767,
        -0.002258521504700184,
        0.9987029433250427
      ],
      "translation": [
        1.7881393432617188e-07,
        3.4282681941986084,
        -8.195638656616211e-08
      ]
    },
    {
      "children": [
        18
      ],
      "matrix": [
        -0.27119579911222574,
        -1.1814066218451444e-07,
        1.9265297035241634e-07,
        0.0,
        1.1814067516726018e-07,
        0.1229693881931819,
        0.2417141021704785,
        0.0,
        -1.9265299152348885e-07,
        0.2417141021704785,
        -0.12296938819308773,
        0.0,
        -1.2592893838882446,
        3.7864198684692383,
        2.3645076751708984,
        1.0
      ],
      "name": "Armature.001_30"
    },
    {
      "children": [
        19,
        21,
        20
      ],
      "name": "GLTF_created_1"
    },
    {
      "children": [
        22,
        26,
        29,
        32
      ],
      "name": "GLTF_created_1_rootJoint"
    },
    {
      "name": "Coyote_2_Model_5.002_29"
    },
    {
      "mesh": 1,
      "name": "Object_21",
      "skin": 1
    },
    {
      "children": [
        23
      ],
      "name": "Bone_14",
      "rotation": [
        0.07054280489683151,
        1.3878202059865223e-16,
        1.3878203383354203e-16,
        0.9975087642669678
      ],
      "scale": [
        1.0,
        0.9999999403953552,
        0.9999999403953552
      ],
      "translation": [
        2.212022438938767e-16,
        -0.7463860511779785,
        0.005199916660785675
      ]
    },
    {
      "children": [
        24
      ],
      "name": "Bone.001_13",
      "rotation": [
        -0.1228657141327858,
        2.5332294590053778e-18,
        -2.973159429373234e-17,
        0.9924232959747314
      ],
      "scale": [
        1.0,
        0.9999998807907104,
        0.9999999403953552
      ],
      "translation": [
        -5.314635435653203e-23,
        3.5863754749298096,
        3.725290298461914e-08
      ]
    },
    {
      "children": [
        25
      ],
      "name": "Bone.002_12",
      "rotation": [
        -0.20040377974510193,
        1.1679094313876703e-07,
        -2.3889995759418525e-08,
        0.9797133803367615
      ],
      "scale": [
        1.0,
        1.0,
        0.9999999403953552
      ],
      "translation": [
        6.28657265540301e-23,
        4.378220558166504,
        -1.1175870895385742e-08
      ]
    },
    {
      "name": "Bone.003_11",
      "rotation": [
        -0.3477316200733185,
        6.6310664607654914e-15,
        -8.290570008284703e-08,
        0.9375941157341003
      ],
      "scale": [
        1.0,
        1.0,
        0.9999999403953552
      ],
      "translation": [
        1.1109675327044752e-13,
        2.1921653747558594,
        -3.5762786865234375e-07
      ]
    },
    {
      "children": [
        27
      ],
      "name": "Bone.004_17",
      "rotation": [
        -0.7651327252388,
        0.005010343622416258,
        -0.3224683105945587,
        0.5572800636291504
      ],
      "scale": [
        1.0000001192092896,
        1.0,
        1.0000001192092896
      ],
      "translation": [
        1.6625454790641925e-08,
        -0.7463859915733337,
        0.005199858918786049
      ]
    },
    {
      "children": [
        28
      ],
      "name": "Bone.008_16",
      "rotation": [
        -0.12991556525230408,
        6.08580492666988e-08,
        0.1545606553554535,
        0.9794043898582458
      ],
      "scale": [
        0.9999999403953552,
        1.0,
        0.9999998807907104
      ],
      "translation": [
        -1.609800932556027e-07,
        4.709380626678467,
        4.6677703835484863e-07
      ]
    },
    {
      "name": "Bone.009_15",
      "rotation": [
        0.00027368313749320805,
        2.2349704309476692e-08,
        -0.0004262347356416285,
        0.9999998807907104
      ],
      "scale": [
        1.0000001192092896,
        1.0000001192092896,
        0.9999998807907104
      ],
      "translation": [
        1.2002212201878137e-07,
        3.341214895248413,
        7.753822046652203e-07
      ]
    },
    {
      "children": [
        30
      ],
      "name": "Bone.005_20",
      "rotation": [
        -0.7640429139137268,
        -0.05065752565860748,
        0.33543601632118225,
        0.5487759113311768
      ],
      "translation": [
        -8.665008266461882e-09,
        -0.7463860511779785,
        0.005199883133172989
      ]
    },
    {
      "children": [
        31
      ],
      "name": "Bone.006_19",
      "rotation": [
        -0.13490687310695648,
        1.792005299705579e-08,
        -0.08213075250387192,
        0.9874486327171326
      ],
      "scale": [
        0.9999998807907104,
        0.9999998807907104,
        0.9999998807907104
      ],
      "translation": [
        4.743719017596959e-08,
        4.6497015953063965,
        3.5631043715511623e-07
      ]
    },
    {
      "name": "Bone.007_18",
      "rotation": [
        0.013804224319756031,
        7.265413870527482e-08,
        -0.010568455792963505,
        0.9998489022254944
      ],
      "translation": [
        -2.384267077104596e-07,
        3.5554709434509277,
        5.960358180345793e-07
      ]
    },
    {
      "children": [
        33
      ],
      "name": "Bone.010_28",
      "rotation": [
        1.9348981084021943e-07,
        0.1116488128900528,
        0.9937477111816406,
        2.173882940326166e-08
      ],
      "scale": [
        1.0,
        0.9999998211860657,
        0.9999999403953552
      ],
      "translation": [
        2.212022306589869e-16,
        -0.7463860511779785,
        0.005199909210205078
      ]
    },
    {
      "children": [
        34,
        37
      ],
      "name": "Bone.011_27",
      "rotation": [
        0.1006888896226883,
        1.2498015182450459e-14,
        -3.920969149362463e-08,
        0.9949180483818054
      ],
      "scale": [
        1.0,
        1.0000001192092896,
        1.0
      ],
      "translation": [
        5.098645030482407e-14,
        8.111083030700684,
        4.991628088646394e-07
      ]
    },
    {
      "children": [
        35
      ],
      "name": "Bone.012_23",
      "rotation": [
        -0.7575031518936157,
        -0.05784335359930992,
        -0.049465361982584,
        0.6483797430992126
      ],
      "scale": [
        0.9999998807907104,
        1.0,
        1.0
      ],
      "translation": [
        -2.4997268699422648e-09,
        3.237004041671753,
        -1.9406471096772293e-07
      ]
    },
    {
      "children": [
        36
      ],
      "name": "Bone.013_22",
      "rotation": [
        0.3492019474506378,
        0.02668701484799385,
        0.07127755880355835,
        0.9339514374732971
      ],
      "scale": [
        1.0000001192092896,
        0.9999998807907104,
        0.9999999403953552
      ],
      "translation": [
        1.2714227182186733e-07,
        4.673462390899658,
        -5.099737450109387e-07
      ]
    },
    {
      "name": "Bone.014_21",
      "rotation": [
        -0.24380221962928772,
        -0.005659784656018019,
        -0.022120829671621323,
        0.9695561528205872
      ],
      "scale": [
        1.0,
        0.9999999403953552,
        0.9999998807907104
      ],
      "translation": [
        1.2982866337551968e-08,
        2.877532482147217,
        2.2295692758689256e-07
      ]
    },
    {
      "children": [
        38
      ],
      "name": "Bone.015_26",
      "rotation": [
        -0.6945699453353882,
        -0.03792015463113785,
        0.2796299159526825,
        0.6617717742919922
      ],
      "scale": [
        1.0,
        0.9999998211860657,
        0.9999998807907104
      ],
      "translation": [
        -5.706462320904937e-14,
        3.237004041671753,
        -1.1920928955078125e-07
      ]
    },
    {
      "children": [
        39
      ],
      "name": "Bone.016_25",
      "rotation": [
        0.23472964763641357,
        0.005521540530025959,
        -0.2658268213272095,
        0.9349907636642456
      ],
      "scale": [
        1.0,
        1.0,
        0.9999999403953552
      ],
      "translation": [
        3.4387721825623885e-07,
        4.889902591705322,
        -1.0893936632783152e-06
      ]
    },
    {
      "name": "Bone.017_24",
      "rotation": [
        -0.24382494390010834,
        0.010193021968007088,
        0.040541958063840866,
        0.9689179062843323
      ],
      "scale": [
        1.0000001192092896,
        1.0,
        1.0
      ],
      "translation": [
        2.580788418526936e-07,
        2.868117332458496,
        4.394863424295181e-07
      ]
    }
  ],
  "samplers": [
    {
      "magFilter": 9729,
      "minFilter": 9987,
      "wrapS": 10497,
      "wrapT": 10497
    }
  ],
  "scene": 0,
  "scenes": [
    {
      "name": "Sketchfab_Scene",
      "nodes": [
        0
      ]
    }
  ],
  "skins": [
    {
      "inverseBindMatrices": 8,
      "joints": [
        5,
        8,
        9,
        10,
        11,
        12,
        13,
        14,
        15,
        16
      ],
      "skeleton": 5
    },
    {
      "inverseBindMatrices": 9,
      "joints": [
        19,
        22,
        23,
        24,
        25,
        26,
        27,
        28,
        29,
        30,
        31,
        32,
        33,
        34,
        35,
        36,
        37,
        38,
        39
      ],
      "skeleton": 19
    }
  ],
  "textures": [
    {
      "sampler": 0,
      "source": 0
    },
    {
      "sampler": 0,
      "source": 1
    }
  ]
}
