{
  "accessors": [
    {
      "bufferView": 2,
      "componentType": 5126,
      "count": 4294,
      "max": [
        195.79949951171875,
        3.039090156555176,
        126.73643493652344
      ],
      "min": [
        -195.7994384765625,
        -212.2801971435547,
        -142.1590576171875
      ],
      "type": "VEC3"
    },
    {
      "bufferView": 2,
      "byteOffset": 51528,
      "componentType": 5126,
      "count": 4294,
      "max": [
        1.0,
        1.0,
        1.0
      ],
      "min": [
        -1.0,
        -1.0,
        -1.0
      ],
      "type": "VEC3"
    },
    {
      "bufferView": 3,
      "componentType": 5126,
      "count": 4294,
      "max": [
        1.0,
        1.0,
        1.0,
        1.0
      ],
      "min": [
        -1.0,
        -1.0,
        -1.0,
        -1.0
      ],
      "type": "VEC4"
    },
    {
      "bufferView": 1,
      "componentType": 5126,
      "count": 4294,
      "max": [
        0.9802585244178772,
        0.9879553318023682
      ],
      "min": [
        0.00895865261554718,
        0.0161193385720253
      ],
      "type": "VEC2"
    },
    {
      "bufferView": 0,
      "componentType": 5125,
      "count": 16350,
      "type": "SCALAR"
    },
    {
      "bufferView": 2,
      "byteOffset": 103056,
      "componentType": 5126,
      "count": 2549,
      "max": [
        195.79949951171875,
        3.03908634185791,
        3.0373382568359375
      ],
      "min": [
        -195.7994384765625,
        -212.2801971435547,
        -142.1590576171875
      ],
      "type": "VEC3"
    },
    {
      "bufferView": 2,
      "byteOffset": 133644,
      "componentType": 5126,
      "count": 2549,
      "max": [
        1.0,
        1.0,
        1.0
      ],
      "min": [
        -1.0,
        -1.0,
        -1.0
      ],
      "type": "VEC3"
    },
    {
      "bufferView": 3,
      "byteOffset": 68704,
      "componentType": 5126,
      "count": 2549,
      "max": [
        1.0,
        1.0,
        1.0,
        1.0
      ],
      "min": [
        -1.0,
        -1.0,
        -1.0,
        -1.0
      ],
      "type": "VEC4"
    },
    {
      "bufferView": 1,
      "byteOffset": 34352,
      "componentType": 5126,
      "count": 2549,
      "max": [
        0.9802585244178772,
        0.9879553318023682
      ],
      "min": [
        0.00895865261554718,
        0.0161193385720253
      ],
      "type": "VEC2"
    },
    {
      "bufferView": 0,
      "byteOffset": 65400,
      "componentType": 5125,
      "count": 9996,
      "type": "SCALAR"
    },
    {
      "bufferView": 2,
      "byteOffset": 164232,
      "componentType": 5126,
      "count": 1635,
      "max": [
        195.79937744140625,
        167.44781494140625,
        190.4785614013672
      ],
      "min": [
        -195.79937744140625,
        -3.029137134552002,
        -13.154296875
      ],
      "type": "VEC3"
    },
    {
      "bufferView": 2,
      "byteOffset": 183852,
      "componentType": 5126,
      "count": 1635,
      "max": [
        1.0,
        0.9998523592948914,
        0.9988914132118225
      ],
      "min": [
        -1.0,
        -0.9997917413711548,
        -1.0
      ],
      "type": "VEC3"
    },
    {
      "bufferView": 3,
      "byteOffset": 109488,
      "componentType": 5126,
      "count": 1635,
      "max": [
        1.0,
        0.9998453259468079,
        0.9999920129776001,
        1.0
      ],
      "min": [
        -1.0,
        -0.9961948394775391,
        -0.9999920129776001,
        -1.0
      ],
      "type": "VEC4"
    },
    {
      "bufferView": 1,
      "byteOffset": 54744,
      "componentType": 5126,
      "count": 1635,
      "max": [
        0.9716965556144714,
        0.9826300740242004
      ],
      "min": [
        0.010228371247649193,
        0.020421847701072693
      ],
      "type": "VEC2"
    },
    {
      "bufferView": 0,
      "byteOffset": 105384,
      "componentType": 5125,
      "count": 6354,
      "type": "SCALAR"
    }
  ],
  "asset": {
    "extras": {
      "author": "XialiMu.Bell (https://sketchfab.com/XialiMu.Bell)",
      "license": "CC-BY-4.0 (http://creativecommons.org/licenses/by/4.0/)",
      "source": "https://sketchfab.com/3d-models/treasurechest-01-61f499107581437199d81052de38ec8f",
      "title": "Treasurechest_01"
    },
    "generator": "Sketchfab-12.67.0",
    "version": "2.0"
  },
  "bufferViews": [
    {
      "buffer": 0,
      "byteLength": 130800,
      "name": "floatBufferViews",
      "target": 34963
    },
    {
      "buffer": 0,
      "byteLength": 67824,
      "byteOffset": 130800,
      "byteStride": 8,
      "name": "floatBufferViews",
      "target": 34962
    },
    {
      "buffer": 0,
      "byteLength": 203472,
      "byteOffset": 198624,
      "byteStride": 12,
      "name": "floatBufferViews",
      "target": 34962
    },
    {
      "buffer": 0,
      "byteLength": 135648,
      "byteOffset": 402096,
      "byteStride": 16,
      "name": "floatBufferViews",
      "target": 34962
    }
  ],
  "buffers": [
    {
      "byteLength": 537744,
      "uri": "scene.bin"
    }
  ],
  "images": [
    {
      "uri": "textures/Treasurechest01_baseColor.jpeg"
    },
    {
      "uri": "textures/Treasurechest01_metallicRoughness.png"
    },
    {
      "uri": "textures/Treasurechest01_normal.png"
    }
  ],
  "materials": [
    {
      "doubleSided": true,
      "name": "Treasurechest01",
      "normalTexture": {
        "index": 2
      },
      "occlusionTexture": {
        "index": 1
      },
      "pbrMetallicRoughness": {
        "baseColorTexture": {
          "index": 0
        },
        "metallicRoughnessTexture": {
          "index": 1
        }
      }
    }
  ],
  "meshes": [
    {
      "name": "Treasurechest01_end_Treasurechest01_0",
      "primitives": [
        {
          "attributes": {
            "NORMAL": 1,
            "POSITION": 0,
            "TANGENT": 2,
            "TEXCOORD_0": 3
          },
          "indices": 4,
          "material": 0,
          "mode": 4
        }
      ]
    },
    {
      "name": "Treasurechest01_end002_Treasurechest01_0",
      "primitives": [
        {
          "attributes": {
            "NORMAL": 6,
            "POSITION": 5,
            "TANGENT": 7,
            "TEXCOORD_0": 8
          },
          "indices": 9,
          "material": 0,
          "mode": 4
        }
      ]
    },
    {
      "name": "Object174_Treasurechest01_0",
      "primitives": [
        {
          "attributes": {
            "NORMAL": 11,
            "POSITION": 10,
            "TANGENT": 12,
            "TEXCOORD_0": 13
          },
          "indices": 14,
          "material": 0,
          "mode": 4
        }
      ]
    }
  ],
  "nodes": [
    {
      "children": [
        1
      ],
      "matrix": [
        1.0,
        0.0,
        0.0,
        0.0,
        0.0,
        2.220446049250313e-16,
        -1.0,
        0.0,
        0.0,
        1.0,
        2.220446049250313e-16,
        0.0,
        0.0,
        0.0,
        0.0,
        1.0
      ],
      "name": "Sketchfab_model"
    },
    {
      "children": [
        2
      ],
      "matrix": [
        1.0,
        0.0,
        0.0,
        0.0,
        0.0,
        0.0,
        1.0,
        0.0,
        0.0,
        -1.0,
        0.0,
        0.0,
        0.0,
        0.0,
        0.0,
        1.0
      ],
      "name": "Treasurechest01_end.FBX"
    },
    {
      "children": [
        3,
        5,
        7
      ],
      "name": "RootNode"
    },
    {
      "children": [
        4
      ],
      "matrix": [
        1.0,
        0.0,
        0.0,
        0.0,
        0.0,
        2.220446049250313e-16,
        -1.0,
        0.0,
        0.0,
        1.0,
        2.220446049250313e-16,
        0.0,
        0.0,
        0.0,
        0.0,
        1.0
      ],
      "name": "Treasurechest01_end"
    },
    {
      "mesh": 0,
      "name": "Treasurechest01_end_Treasurechest01_0"
    },
    {
      "children": [
        6
      ],
      "matrix": [
        1.0,
        0.0,
        0.0,
        0.0,
        0.0,
        2.220446049250313e-16,
        -1.0,
        0.0,
        0.0,
        1.0,
        2.220446049250313e-16,
        0.0,
        464.8839416503906,
        0.0,
        0.0,
        1.0
      ],
      "name": "Treasurechest01_end002"
    },
    {
      "mesh": 1,
      "name": "Treasurechest01_end002_Treasurechest01_0"
    },
    {
      "children": [
        8
      ],
      "matrix": [
        1.0,
        0.0,
        0.0,
        0.0,
        0.0,
        2.220446049250313e-16,
        -1.0,
        0.0,
        0.0,
        1.0,
        2.220446049250313e-16,
        0.0,
        464.8839416503906,
        0.0,
        0.0,
        1.0
      ],
      "name": "Object174"
    },
    {
      "mesh": 2,
      "name": "Object174_Treasurechest01_0"
    }
  ],
  "samplers": [
    {
      "magFilter": 9729,
      "minFilter": 9987,
      "wrapS": 10497,
      "wrapT": 10497
    }
  ],
  "scene": 0,
  "scenes": [
    {
      "name": "Sketchfab_Scene",
      "nodes": [
        0
      ]
    }
  ],
  "textures": [
    {
      "sampler": 0,
      "source": 0
    },
    {
      "sampler": 0,
      "source": 1
    },
    {
      "sampler": 0,
      "source": 2
    }
  ]
}
